<svg xmlns="http://www.w3.org/2000/svg" viewBox="0 0 32 32"><path fill="#f89d6a" d="M27.5 24.5h-23a2 2 0 0 1-2-2v-1h27v1a2 2 0 0 1-2 2z"/><path fill="#e5815e" d="M12.5 16.5h7v23h-7z" transform="rotate(90 16 28)"/><path fill="#66abd4" d="M17.412 15.094l-2.609-1.565H8.181l-2.609 1.565A2.209 2.209 0 0 0 4.5 16.988V20.5a1 1 0 0 0 1 1h11.984a1 1 0 0 0 1-1v-.353l.001-3.159a2.21 2.21 0 0 0-1.073-1.894z"/><path fill="#ffda87" d="M8.152 4.604l-.008 3.461a3.346 3.346 0 1 0 6.692 0l.008-3.461H8.152z"/><path fill="#ffda87" d="M9.5 9.914h4v3.733h-4z"/><path fill="#fff" d="M8.178 13.529l1.473 1.841 1.84-1.841-2.319-1.105z"/><path fill="#fff" d="M14.805 13.529l-1.473 1.841-1.841-1.841 2.32-1.105z"/><path fill="#5b5d70" d="M14.167 2.121l-3.625-.604a1.506 1.506 0 0 0-1.754 1.486v.041c-.791 0-1.381.729-1.216 1.503l.574 2.096L9.184 5.35v-.769h4.612v.769l1.041 1.293.59-2.73a1.538 1.538 0 0 0-1.26-1.792z"/><path fill="#4f5266" d="M19.5 28h-7a.5.5 0 0 1 0-1h7a.5.5 0 0 1 0 1zM27.5 25h-23A2.503 2.503 0 0 1 2 22.5v-1a.5.5 0 0 1 .5-.5h27a.5.5 0 0 1 .5.5v1c0 1.378-1.121 2.5-2.5 2.5zM3 22v.5c0 .827.673 1.5 1.5 1.5h23c.827 0 1.5-.673 1.5-1.5V22H3z"/><path fill="#4f5266" d="M27.5 32h-23a.5.5 0 0 1-.5-.5v-7a.5.5 0 0 1 .5-.5h23a.5.5 0 0 1 .5.5v7a.5.5 0 0 1-.5.5zM5 31h22v-6H5v6z"/><path fill="#8a8b99" d="M15.5 12.5h10v7h-10z"/><path fill="#4f5266" d="M25.5 20h-10a.5.5 0 0 1-.5-.5v-7a.5.5 0 0 1 .5-.5h10a.5.5 0 0 1 .5.5v7a.5.5 0 0 1-.5.5zM16 19h9v-6h-9v6z"/><circle cx="20.5" cy="16" r="1" fill="#4f5266"/><path fill="#8a8b99" d="M23.5 21.5h-8a2 2 0 0 1-2-2h12a2 2 0 0 1-2 2z"/><path fill="#4f5266" d="M23.5 22h-8a2.503 2.503 0 0 1-2.5-2.5.5.5 0 0 1 .5-.5h12a.5.5 0 0 1 .5.5c0 1.378-1.121 2.5-2.5 2.5zm-9.414-2c.206.582.762 1 1.414 1h8c.652 0 1.208-.418 1.414-1H14.086zM11.485 20h-3.97a.5.5 0 0 1-.5-.5v-2a.5.5 0 0 1 1 0V19h3.471a.5.5 0 1 1-.001 1zM8.485 22H5.5c-.827 0-1.5-.673-1.5-1.5V19a.5.5 0 0 1 1 0v1.5a.5.5 0 0 0 .5.5h2.985a.5.5 0 0 1 0 1zM11.489 11.91a3.85 3.85 0 0 1-3.845-3.845V6.206h1v1.859a2.848 2.848 0 0 0 2.845 2.845 2.849 2.849 0 0 0 2.846-2.845V6.206h1v1.859a3.85 3.85 0 0 1-3.846 3.845z"/><path fill="#4f5266" d="M9 10.915h1v1.733H9zM13 10.915h1v1.733h-1zM14.837 7.143a.502.502 0 0 1-.39-.187l-1.041-1.293a.502.502 0 0 1-.11-.313v-.269H9.684v.269a.502.502 0 0 1-.11.313L8.535 6.956a.502.502 0 0 1-.872-.182L7.09 4.679a1.749 1.749 0 0 1 1.242-2.075 2.002 2.002 0 0 1 2.292-1.58l3.625.604c.542.09 1.016.388 1.332.838.315.45.436.995.338 1.536l-.594 2.746a.5.5 0 0 1-.488.395zm-4.543-5.146a1.003 1.003 0 0 0-1.006 1.006c0 .276-.224.541-.5.541a.737.737 0 0 0-.577.276.735.735 0 0 0-.149.622l.308 1.123.314-.392v-.592a.5.5 0 0 1 .5-.5h4.612a.5.5 0 0 1 .5.5v.592l.273.34.369-1.706c.046-.259-.015-.537-.176-.766s-.402-.381-.677-.427L10.46 2.01a1.04 1.04 0 0 0-.166-.013zM4.5 20.647a.5.5 0 0 1-.5-.5l-.001-3.159c0-.946.504-1.835 1.314-2.323l2.61-1.565a.5.5 0 1 1 .514.857l-2.609 1.565a1.719 1.719 0 0 0-.829 1.465L5 20.147a.5.5 0 0 1-.5.5zM15.504 14.448a.499.499 0 0 1-.257-.071l-.699-.419a.5.5 0 1 1 .514-.857l.699.419a.5.5 0 0 1-.257.928z"/><path fill="#4f5266" d="M9.65 15.87l-.027-.001a.5.5 0 0 1-.363-.187l-1.473-1.841a.501.501 0 0 1 .019-.647L8.8 12.09a.501.501 0 0 1 .587-.117l2.319 1.104a.497.497 0 0 1 .138.805l-1.841 1.841a.498.498 0 0 1-.353.147zm-.817-2.322l.858 1.073.945-.945-1.343-.64-.46.512z"/><path fill="#4f5266" d="M13.332 15.87a.501.501 0 0 1-.354-.146l-1.841-1.841a.501.501 0 0 1 .138-.805l2.319-1.104a.502.502 0 0 1 .587.117l.994 1.104a.502.502 0 0 1 .019.647l-1.473 1.841a.502.502 0 0 1-.363.187h-.026zm-.986-2.194l.945.945.858-1.073-.461-.512-1.342.64z"/></svg>